<svg width="732" height="434" viewBox="0 0 732 434" fill="none" xmlns="http://www.w3.org/2000/svg">
<g filter="url(#filter0_d_276_39)">
<rect x="24" y="150" width="572" height="118" rx="8" fill="#1A1A1A" shape-rendering="crispEdges"/>
<rect x="40" y="166" width="280" height="17" rx="7" fill="#36333D"/>
<rect x="40" y="195" width="352" height="17" rx="7" fill="#27262C"/>
<rect x="40" y="232" width="32" height="16" rx="8" fill="#36333D"/>
<rect x="532" y="228" width="48" height="24" rx="4" fill="#363036"/>
<rect x="24.5" y="150.5" width="571" height="117" rx="7.5" stroke="#252D27" shape-rendering="crispEdges"/>
</g>
<g filter="url(#filter1_d_276_39)">
<rect x="88" y="284" width="572" height="118" rx="8" fill="#1A1A1A" shape-rendering="crispEdges"/>
<rect x="104" y="300" width="200" height="17" rx="7" fill="#36333D"/>
<rect x="104" y="329" width="144" height="17" rx="7" fill="#27262C"/>
<rect x="104" y="366" width="32" height="16" rx="8" fill="#36333D"/>
<rect x="596" y="362" width="48" height="24" rx="4" fill="#363036"/>
<rect x="88.5" y="284.5" width="571" height="117" rx="7.5" stroke="#2B222F" shape-rendering="crispEdges"/>
</g>
<g filter="url(#filter2_d_276_39)">
<rect x="136" y="16" width="572" height="118" rx="8" fill="#1A1A1A" shape-rendering="crispEdges"/>
<rect x="152" y="32" width="280" height="17" rx="7" fill="#36333D"/>
<rect x="152" y="61" width="200" height="17" rx="7" fill="#27262C"/>
<rect x="152" y="98" width="32" height="16" rx="8" fill="#36333D"/>
<rect x="644" y="94" width="48" height="24" rx="4" fill="#363036"/>
<rect x="136.5" y="16.5" width="571" height="117" rx="7.5" stroke="#2B2727" shape-rendering="crispEdges"/>
</g>
<defs>
<filter id="filter0_d_276_39" x="0" y="134" width="620" height="166" filterUnits="userSpaceOnUse" color-interpolation-filters="sRGB">
<feFlood flood-opacity="0" result="BackgroundImageFix"/>
<feColorMatrix in="SourceAlpha" type="matrix" values="0 0 0 0 0 0 0 0 0 0 0 0 0 0 0 0 0 0 127 0" result="hardAlpha"/>
<feOffset dy="8"/>
<feGaussianBlur stdDeviation="12"/>
<feComposite in2="hardAlpha" operator="out"/>
<feColorMatrix type="matrix" values="0 0 0 0 0 0 0 0 0 0 0 0 0 0 0 0 0 0 0.16 0"/>
<feBlend mode="normal" in2="BackgroundImageFix" result="effect1_dropShadow_276_39"/>
<feBlend mode="normal" in="SourceGraphic" in2="effect1_dropShadow_276_39" result="shape"/>
</filter>
<filter id="filter1_d_276_39" x="64" y="268" width="620" height="166" filterUnits="userSpaceOnUse" color-interpolation-filters="sRGB">
<feFlood flood-opacity="0" result="BackgroundImageFix"/>
<feColorMatrix in="SourceAlpha" type="matrix" values="0 0 0 0 0 0 0 0 0 0 0 0 0 0 0 0 0 0 127 0" result="hardAlpha"/>
<feOffset dy="8"/>
<feGaussianBlur stdDeviation="12"/>
<feComposite in2="hardAlpha" operator="out"/>
<feColorMatrix type="matrix" values="0 0 0 0 0 0 0 0 0 0 0 0 0 0 0 0 0 0 0.16 0"/>
<feBlend mode="normal" in2="BackgroundImageFix" result="effect1_dropShadow_276_39"/>
<feBlend mode="normal" in="SourceGraphic" in2="effect1_dropShadow_276_39" result="shape"/>
</filter>
<filter id="filter2_d_276_39" x="112" y="0" width="620" height="166" filterUnits="userSpaceOnUse" color-interpolation-filters="sRGB">
<feFlood flood-opacity="0" result="BackgroundImageFix"/>
<feColorMatrix in="SourceAlpha" type="matrix" values="0 0 0 0 0 0 0 0 0 0 0 0 0 0 0 0 0 0 127 0" result="hardAlpha"/>
<feOffset dy="8"/>
<feGaussianBlur stdDeviation="12"/>
<feComposite in2="hardAlpha" operator="out"/>
<feColorMatrix type="matrix" values="0 0 0 0 0 0 0 0 0 0 0 0 0 0 0 0 0 0 0.16 0"/>
<feBlend mode="normal" in2="BackgroundImageFix" result="effect1_dropShadow_276_39"/>
<feBlend mode="normal" in="SourceGraphic" in2="effect1_dropShadow_276_39" result="shape"/>
</filter>
</defs>
</svg>
