<svg width="24" height="24" viewBox="0 0 24 24" fill="none" xmlns="http://www.w3.org/2000/svg">
<path d="M17.069 6.546L19.753 4.187C19.896 4.062 20.073 4 20.25 4C20.668 4 21 4.34 21 4.75C21 4.957 20.914 5.164 20.746 5.312L4.246 19.813C4.104 19.939 3.927 20 3.75 20C3.335 20 3 19.666 3 19.25C3 19.043 3.086 18.836 3.253 18.688L5.691 16.545C4.277 15.413 3.064 13.993 2.144 12.517C2.048 12.358 2 12.179 2 12C2 11.821 2.049 11.642 2.145 11.483C4.256 8.093 7.92 5 11.998 5C13.813 5 15.534 5.593 17.069 6.546ZM19.388 8.376C20.354 9.319 21.191 10.39 21.862 11.493C21.954 11.649 22 11.825 22 12C22 12.175 21.954 12.351 21.862 12.507C19.794 15.91 16.141 19 11.998 19C10.701 19 9.445 18.687 8.269 18.151L9.516 17.055C10.311 17.34 11.142 17.5 11.998 17.5C15.514 17.5 18.574 14.878 20.411 12C19.816 11.068 19.093 10.162 18.266 9.363L19.388 8.376ZM15.954 11.395C15.984 11.592 16 11.794 16 12C16 14.208 14.208 16 12 16C11.616 16 11.244 15.946 10.893 15.844L12.473 14.455C13.368 14.284 14.094 13.634 14.374 12.784L15.954 11.395ZM15.896 7.577C14.699 6.907 13.384 6.5 11.998 6.5C8.533 6.5 5.465 9.132 3.594 12C4.447 13.308 5.549 14.567 6.825 15.549L8.553 14.03C8.202 13.435 8 12.741 8 12C8 9.792 9.792 8 12 8C12.925 8 13.777 8.315 14.455 8.843L15.896 7.577ZM13.296 9.862C12.918 9.632 12.474 9.5 12 9.5C10.62 9.5 9.5 10.62 9.5 12C9.5 12.36 9.576 12.701 9.713 13.011L13.296 9.862Z" fill="#1A1A1A"/>
</svg>
