<svg width="116" height="19" viewBox="0 0 116 19" fill="none" xmlns="http://www.w3.org/2000/svg">
<path d="M0.52 14V0.0349997H2.211V14H0.52ZM5.25145 1.9255V0.1775H6.94245V1.9255H5.25145ZM5.25145 14V3.74H6.94245V14H5.25145ZM17.0984 14V8.8605C17.0984 8.37283 17.0541 7.90417 16.9654 7.4545C16.8831 7.00483 16.7342 6.60267 16.5189 6.248C16.3099 5.887 16.0249 5.602 15.6639 5.393C15.3092 5.184 14.8596 5.0795 14.3149 5.0795C13.8906 5.0795 13.5042 5.15233 13.1559 5.298C12.8139 5.43733 12.5194 5.65267 12.2724 5.944C12.0254 6.23533 11.8322 6.60267 11.6929 7.046C11.5599 7.483 11.4934 7.99917 11.4934 8.5945L10.3819 8.2525C10.3819 7.25817 10.5592 6.40633 10.9139 5.697C11.2749 4.98133 11.7784 4.4335 12.4244 4.0535C13.0767 3.66717 13.8431 3.474 14.7234 3.474C15.3884 3.474 15.9552 3.5785 16.4239 3.7875C16.8926 3.9965 17.2821 4.27517 17.5924 4.6235C17.9027 4.9655 18.1466 5.35183 18.3239 5.7825C18.5012 6.20683 18.6247 6.64067 18.6944 7.084C18.7704 7.521 18.8084 7.93583 18.8084 8.3285V14H17.0984ZM9.78339 14V3.74H11.3034V6.4855H11.4934V14H9.78339ZM21.2687 14L21.2782 0.319999H22.9882V8.68L27.2917 3.74H29.4862L24.9547 8.87L30.0182 14H27.6527L22.9882 9.06V14H21.2687ZM34.6542 14.2755C33.4319 14.2755 32.4281 14.0095 31.6427 13.4775C30.8637 12.9392 30.3856 12.1887 30.2082 11.226L31.9372 10.9505C32.0766 11.5078 32.3964 11.9512 32.8967 12.2805C33.3971 12.6035 34.0177 12.765 34.7587 12.765C35.4617 12.765 36.0127 12.6193 36.4117 12.328C36.8107 12.0367 37.0102 11.6408 37.0102 11.1405C37.0102 10.8492 36.9437 10.6148 36.8107 10.4375C36.6777 10.2538 36.4022 10.0828 35.9842 9.9245C35.5726 9.76617 34.9487 9.57617 34.1127 9.3545C33.2071 9.11383 32.4946 8.86367 31.9752 8.604C31.4559 8.34433 31.0854 8.0435 30.8637 7.7015C30.6421 7.3595 30.5312 6.94467 30.5312 6.457C30.5312 5.85533 30.6959 5.32967 31.0252 4.88C31.3546 4.424 31.8137 4.0725 32.4027 3.8255C32.9981 3.5785 33.6884 3.455 34.4737 3.455C35.2527 3.455 35.9494 3.5785 36.5637 3.8255C37.1781 4.0725 37.6721 4.424 38.0457 4.88C38.4257 5.32967 38.6506 5.85533 38.7202 6.457L36.9912 6.7705C36.9089 6.2195 36.6429 5.78567 36.1932 5.469C35.7499 5.15233 35.1767 4.9845 34.4737 4.9655C33.8087 4.94017 33.2672 5.05733 32.8492 5.317C32.4376 5.57667 32.2317 5.92817 32.2317 6.3715C32.2317 6.6185 32.3077 6.83067 32.4597 7.008C32.6181 7.18533 32.9062 7.35317 33.3242 7.5115C33.7486 7.66983 34.3629 7.85033 35.1672 8.053C36.0729 8.281 36.7854 8.53117 37.3047 8.8035C37.8304 9.0695 38.2041 9.38617 38.4257 9.7535C38.6474 10.1145 38.7582 10.561 38.7582 11.093C38.7582 12.081 38.3941 12.86 37.6657 13.43C36.9374 13.9937 35.9336 14.2755 34.6542 14.2755ZM43.7699 14.285C43.0036 14.285 42.3608 14.1457 41.8414 13.867C41.3284 13.582 40.9389 13.2083 40.6729 12.746C40.4133 12.2837 40.2834 11.777 40.2834 11.226C40.2834 10.6877 40.3848 10.2222 40.5874 9.8295C40.7964 9.4305 41.0878 9.10117 41.4614 8.8415C41.8351 8.5755 42.2816 8.3665 42.8009 8.2145C43.2886 8.0815 43.8333 7.9675 44.4349 7.8725C45.0429 7.77117 45.6573 7.67933 46.2779 7.597C46.8986 7.51467 47.4781 7.4355 48.0164 7.3595L47.4084 7.711C47.4274 6.799 47.2438 6.1245 46.8574 5.6875C46.4774 5.2505 45.8188 5.032 44.8814 5.032C44.2608 5.032 43.7161 5.1745 43.2474 5.4595C42.7851 5.73817 42.4589 6.19417 42.2689 6.8275L40.6634 6.343C40.9104 5.44367 41.3886 4.7375 42.0979 4.2245C42.8073 3.7115 43.7414 3.455 44.9004 3.455C45.8314 3.455 46.6294 3.62283 47.2944 3.9585C47.9658 4.28783 48.4471 4.78817 48.7384 5.4595C48.8841 5.77617 48.9759 6.12133 49.0139 6.495C49.0519 6.86233 49.0709 7.24867 49.0709 7.654V14H47.5699V11.5395L47.9214 11.7675C47.5351 12.5972 46.9936 13.2242 46.2969 13.6485C45.6066 14.0728 44.7643 14.285 43.7699 14.285ZM44.0264 12.8695C44.6344 12.8695 45.1601 12.7618 45.6034 12.5465C46.0531 12.3248 46.4141 12.0367 46.6864 11.682C46.9588 11.321 47.1361 10.9283 47.2184 10.504C47.3134 10.1873 47.3641 9.83583 47.3704 9.4495C47.3831 9.05683 47.3894 8.756 47.3894 8.547L47.9784 8.8035C47.4274 8.8795 46.8859 8.95233 46.3539 9.022C45.8219 9.09167 45.3184 9.16767 44.8434 9.25C44.3684 9.326 43.9409 9.41783 43.5609 9.5255C43.2823 9.61417 43.0194 9.72817 42.7724 9.8675C42.5318 10.0068 42.3354 10.1873 42.1834 10.409C42.0378 10.6243 41.9649 10.8935 41.9649 11.2165C41.9649 11.4952 42.0346 11.7612 42.1739 12.0145C42.3196 12.2678 42.5413 12.4737 42.8389 12.632C43.1429 12.7903 43.5388 12.8695 44.0264 12.8695ZM53.9438 14L50.2198 3.74H51.9298L54.8083 11.8435L57.6773 3.74H59.3968L55.6728 14H53.9438ZM65.1901 14.285C64.1831 14.285 63.3027 14.0633 62.5491 13.62C61.8017 13.1703 61.2191 12.5465 60.8011 11.7485C60.3831 10.9442 60.1741 10.0068 60.1741 8.9365C60.1741 7.8155 60.3799 6.8465 60.7916 6.0295C61.2032 5.20617 61.7764 4.57283 62.5111 4.1295C63.2521 3.67983 64.1197 3.455 65.1141 3.455C66.1464 3.455 67.0236 3.6925 67.7456 4.1675C68.4739 4.6425 69.0186 5.32017 69.3796 6.2005C69.7469 7.08083 69.9052 8.129 69.8546 9.345H68.1446V8.737C68.1256 7.47667 67.8691 6.53617 67.3751 5.9155C66.8811 5.2885 66.1464 4.975 65.1711 4.975C64.1261 4.975 63.3312 5.31067 62.7866 5.982C62.2419 6.65333 61.9696 7.616 61.9696 8.87C61.9696 10.0797 62.2419 11.017 62.7866 11.682C63.3312 12.347 64.1071 12.6795 65.1141 12.6795C65.7917 12.6795 66.3807 12.5243 66.8811 12.214C67.3814 11.9037 67.7741 11.4572 68.0591 10.8745L69.6836 11.435C69.2846 12.3407 68.6829 13.0437 67.8786 13.544C67.0806 14.038 66.1844 14.285 65.1901 14.285ZM61.3996 9.345V7.9865H68.9806V9.345H61.3996ZM71.9696 14V3.74H73.4801V6.2195L73.2331 5.8965C73.3535 5.57983 73.5086 5.2885 73.6986 5.0225C73.895 4.7565 74.1135 4.538 74.3541 4.367C74.6201 4.15167 74.921 3.987 75.2566 3.873C75.5923 3.759 75.9343 3.6925 76.2826 3.6735C76.631 3.64817 76.9571 3.67033 77.2611 3.74V5.3265C76.9065 5.2315 76.517 5.20617 76.0926 5.2505C75.6683 5.29483 75.2756 5.45 74.9146 5.716C74.5853 5.95033 74.3288 6.23533 74.1451 6.571C73.9678 6.90667 73.8443 7.27083 73.7746 7.6635C73.705 8.04983 73.6701 8.44567 73.6701 8.851V14H71.9696Z" fill="white"/>
<path d="M79.3615 14V12.138H81.2235V14H79.3615ZM87.0951 14.285C86.3288 14.285 85.686 14.1457 85.1666 13.867C84.6536 13.582 84.2641 13.2083 83.9981 12.746C83.7385 12.2837 83.6086 11.777 83.6086 11.226C83.6086 10.6877 83.71 10.2222 83.9126 9.8295C84.1216 9.4305 84.413 9.10117 84.7866 8.8415C85.1603 8.5755 85.6068 8.3665 86.1261 8.2145C86.6138 8.0815 87.1585 7.9675 87.7601 7.8725C88.3681 7.77117 88.9825 7.67933 89.6031 7.597C90.2238 7.51467 90.8033 7.4355 91.3416 7.3595L90.7336 7.711C90.7526 6.799 90.569 6.1245 90.1826 5.6875C89.8026 5.2505 89.144 5.032 88.2066 5.032C87.586 5.032 87.0413 5.1745 86.5726 5.4595C86.1103 5.73817 85.7841 6.19417 85.5941 6.8275L83.9886 6.343C84.2356 5.44367 84.7138 4.7375 85.4231 4.2245C86.1325 3.7115 87.0666 3.455 88.2256 3.455C89.1566 3.455 89.9546 3.62283 90.6196 3.9585C91.291 4.28783 91.7723 4.78817 92.0636 5.4595C92.2093 5.77617 92.3011 6.12133 92.3391 6.495C92.3771 6.86233 92.3961 7.24867 92.3961 7.654V14H90.8951V11.5395L91.2466 11.7675C90.8603 12.5972 90.3188 13.2242 89.6221 13.6485C88.9318 14.0728 88.0895 14.285 87.0951 14.285ZM87.3516 12.8695C87.9596 12.8695 88.4853 12.7618 88.9286 12.5465C89.3783 12.3248 89.7393 12.0367 90.0116 11.682C90.284 11.321 90.4613 10.9283 90.5436 10.504C90.6386 10.1873 90.6893 9.83583 90.6956 9.4495C90.7083 9.05683 90.7146 8.756 90.7146 8.547L91.3036 8.8035C90.7526 8.8795 90.2111 8.95233 89.6791 9.022C89.1471 9.09167 88.6436 9.16767 88.1686 9.25C87.6936 9.326 87.2661 9.41783 86.8861 9.5255C86.6075 9.61417 86.3446 9.72817 86.0976 9.8675C85.857 10.0068 85.6606 10.1873 85.5086 10.409C85.363 10.6243 85.2901 10.8935 85.2901 11.2165C85.2901 11.4952 85.3598 11.7612 85.4991 12.0145C85.6448 12.2678 85.8665 12.4737 86.1641 12.632C86.4681 12.7903 86.864 12.8695 87.3516 12.8695ZM99.5781 14.285C98.6155 14.285 97.8048 14.0475 97.1461 13.5725C96.4875 13.0912 95.9871 12.442 95.6451 11.625C95.3095 10.8017 95.1416 9.88017 95.1416 8.8605C95.1416 7.82817 95.3095 6.9035 95.6451 6.0865C95.9871 5.2695 96.4875 4.62667 97.1461 4.158C97.8111 3.68933 98.625 3.455 99.5876 3.455C100.538 3.455 101.355 3.6925 102.039 4.1675C102.729 4.63617 103.258 5.279 103.625 6.096C103.992 6.913 104.176 7.8345 104.176 8.8605C104.176 9.8865 103.992 10.808 103.625 11.625C103.258 12.442 102.729 13.0912 102.039 13.5725C101.355 14.0475 100.534 14.285 99.5781 14.285ZM94.8566 18.56V3.74H96.3671V11.2925H96.5571V18.56H94.8566ZM99.3691 12.7365C100.047 12.7365 100.607 12.5655 101.051 12.2235C101.494 11.8815 101.826 11.4192 102.048 10.8365C102.27 10.2475 102.381 9.58883 102.381 8.8605C102.381 8.1385 102.27 7.48617 102.048 6.9035C101.833 6.32083 101.497 5.8585 101.041 5.5165C100.591 5.1745 100.018 5.0035 99.3216 5.0035C98.6566 5.0035 98.1056 5.16817 97.6686 5.4975C97.2316 5.8205 96.9055 6.27333 96.6901 6.856C96.4748 7.43233 96.3671 8.1005 96.3671 8.8605C96.3671 9.60783 96.4716 10.276 96.6806 10.865C96.896 11.4477 97.2253 11.9068 97.6686 12.2425C98.112 12.5718 98.6788 12.7365 99.3691 12.7365ZM110.971 14.285C110.008 14.285 109.197 14.0475 108.539 13.5725C107.88 13.0912 107.38 12.442 107.038 11.625C106.702 10.8017 106.534 9.88017 106.534 8.8605C106.534 7.82817 106.702 6.9035 107.038 6.0865C107.38 5.2695 107.88 4.62667 108.539 4.158C109.204 3.68933 110.018 3.455 110.98 3.455C111.93 3.455 112.747 3.6925 113.431 4.1675C114.122 4.63617 114.65 5.279 115.018 6.096C115.385 6.913 115.569 7.8345 115.569 8.8605C115.569 9.8865 115.385 10.808 115.018 11.625C114.65 12.442 114.122 13.0912 113.431 13.5725C112.747 14.0475 111.927 14.285 110.971 14.285ZM106.249 18.56V3.74H107.76V11.2925H107.95V18.56H106.249ZM110.762 12.7365C111.439 12.7365 112 12.5655 112.443 12.2235C112.887 11.8815 113.219 11.4192 113.441 10.8365C113.662 10.2475 113.773 9.58883 113.773 8.8605C113.773 8.1385 113.662 7.48617 113.441 6.9035C113.225 6.32083 112.89 5.8585 112.434 5.5165C111.984 5.1745 111.411 5.0035 110.714 5.0035C110.049 5.0035 109.498 5.16817 109.061 5.4975C108.624 5.8205 108.298 6.27333 108.083 6.856C107.867 7.43233 107.76 8.1005 107.76 8.8605C107.76 9.60783 107.864 10.276 108.073 10.865C108.289 11.4477 108.618 11.9068 109.061 12.2425C109.505 12.5718 110.071 12.7365 110.762 12.7365Z" fill="#A652CE"/>
</svg>
