<svg width="16" height="16" viewBox="0 0 16 16" fill="none" xmlns="http://www.w3.org/2000/svg">
<path d="M7.6 4.2C8.48366 4.2 9.2 3.48366 9.2 2.6C9.2 1.71634 8.48366 1 7.6 1C6.71634 1 6 1.71634 6 2.6C6 3.48366 6.71634 4.2 7.6 4.2Z" fill="white"/>
<path d="M7.6 9.4C8.48366 9.4 9.2 8.68365 9.2 7.8C9.2 6.91634 8.48366 6.2 7.6 6.2C6.71634 6.2 6 6.91634 6 7.8C6 8.68365 6.71634 9.4 7.6 9.4Z" fill="white"/>
<path d="M7.6 14.6C8.48366 14.6 9.2 13.8836 9.2 13C9.2 12.1163 8.48366 11.4 7.6 11.4C6.71634 11.4 6 12.1163 6 13C6 13.8836 6.71634 14.6 7.6 14.6Z" fill="white"/>
</svg>
