<svg width="16" height="16" viewBox="0 0 16 16" fill="none" xmlns="http://www.w3.org/2000/svg">
<path d="M10.6467 11.354C9.66068 12.1793 8.39068 12.6773 7.00601 12.6773C3.87468 12.6773 1.33334 10.136 1.33334 7.00534C1.33334 3.87468 3.87468 1.33334 7.00601 1.33334C10.136 1.33334 12.678 3.87468 12.678 7.00534C12.678 8.39068 12.18 9.66134 11.3547 10.646L14.5207 13.8127C14.618 13.91 14.6667 14.038 14.6667 14.1667C14.6667 14.558 14.3087 14.6667 14.1667 14.6667C14.0387 14.6667 13.9107 14.618 13.8127 14.52L10.6467 11.354ZM7.00601 2.33401C4.42734 2.33401 2.33468 4.42734 2.33468 7.00534C2.33468 9.58334 4.42734 11.6767 7.00601 11.6767C9.58334 11.6767 11.6773 9.58334 11.6773 7.00534C11.6773 4.42734 9.58334 2.33401 7.00601 2.33401Z" fill="#CEC7D1"/>
</svg>
